<svg width="35" height="35" viewBox="0 0 35 35" fill="none" xmlns="http://www.w3.org/2000/svg">
<g clip-path="url(#clip0_2_2)">
<path d="M18.9221 24.8058H15.6399V17.8176H14V15.1201H15.6399V13.5042C15.6399 11.3076 16.5624 10 19.197 10H21.3874V12.6944H20.0192C18.9951 12.6944 18.9267 13.0702 18.9267 13.7729L18.9221 15.1201H21.4029L21.1125 17.8145H18.9221V24.8027V24.8058Z" fill="white"/>
<path d="M17.5 34.75C27.0269 34.75 34.75 27.0269 34.75 17.5C34.75 7.97309 27.0269 0.25 17.5 0.25C7.97309 0.25 0.25 7.97309 0.25 17.5C0.25 27.0269 7.97309 34.75 17.5 34.75Z" stroke="white" stroke-width="0.5"/>
</g>
<defs>
<clipPath id="clip0_2_2">
<rect width="35" height="35" fill="white"/>
</clipPath>
</defs>
</svg>
